<?xml version="1.0" encoding="utf-8"?>
<!-- Generator: Adobe Illustrator 17.1.0, SVG Export Plug-In . SVG Version: 6.00 Build 0)  -->
<!DOCTYPE svg PUBLIC "-//W3C//DTD SVG 1.1//EN" "http://www.w3.org/Graphics/SVG/1.1/DTD/svg11.dtd">
<svg version="1.1" id="Layer_1" xmlns="http://www.w3.org/2000/svg" xmlns:xlink="http://www.w3.org/1999/xlink" x="0px" y="0px"
	 viewBox="0 0 512 512" enable-background="new 0 0 512 512" xml:space="preserve">
<g>
	<g>
		<g>
			<g>
				<polygon fill="#BE2459" points="220.4,202.6 273.9,202.6 259.3,215.7 				"/>
			</g>
			<g>
				<polygon fill="#0077BF" points="120.7,149.8 216.1,76.4 254.9,149.8 				"/>
			</g>
			<g>
				<path fill="#0077BF" d="M224.9,74.2L346,59.5c7.1,3.3,14.2,7,20.9,11l-4.9,78.1L224.9,74.2z"/>
			</g>
			<g>
				<path fill="#16395B" d="M103.3,149.8l10.6-56c18.4-16.2,39.1-29,61.7-38.1l36.7,17.5l-99.6,76.6H103.3z"/>
			</g>
			<g>
				<path fill="#00BFF2" d="M68.3,149.8c10.6-18.7,23.9-35.7,39.5-50.5l-9.6,50.5H68.3z"/>
			</g>
			<g>
				<path fill="#00BFF2" d="M181.9,53.3c21.4-7.9,43.9-12.3,66.9-13.1l-32.2,29.6L181.9,53.3z"/>
			</g>
			<g>
				<path fill="#16395B" d="M256.2,40.1l0.2,0c27.9,0,55.1,5.2,80.7,15.6L224.2,69.3L256.2,40.1z"/>
			</g>
			<g>
				<path fill="#BED630" d="M341.2,216.4l110.9-51.6c7.5,16.1,13,33,16.3,50.4l-139.5,12.4L341.2,216.4z"/>
			</g>
			<g>
				<path fill="#006A2F" d="M377.9,309.4l-64.5-67.8l9.5-8.6l146.4-13c2,11.8,3,23.9,3,36c0,0.6,0,2.4,0,2.4l-41.2,50.9H377.9z"/>
			</g>
			<g>
				<polygon fill="#BED630" points="272.6,309.4 292.4,260.6 309.7,244.9 371.1,309.4 				"/>
			</g>
			<g>
				<polygon fill="#F05A22" points="256.8,362.2 371.7,362.2 240,443.8 				"/>
			</g>
			<g>
				<path fill="#F9A11B" d="M242.7,447.9L381,362.2h18.4l-18.5,70.2c-21.1,14.9-44.3,25.8-69.2,32.3L242.7,447.9z"/>
			</g>
			<g>
				<path fill="#BE1E2D" d="M404.4,362.2h39.9c-14.4,25.3-34.1,48-57.2,65.6L404.4,362.2z"/>
			</g>
			<g>
				<path fill="#82B341" d="M437.4,309.4l34.6-42.8c-0.4,7.7-1.2,15.4-2.3,22.9c-0.6,3.6,2.1,4.7,19.7,11.3
					c5.7,2.1,13.1,4.9,22.6,8.6H437.4z"/>
			</g>
			<g>
				<polygon fill="#006A2F" points="238.7,309.4 284,268.2 267.3,309.4 				"/>
			</g>
			<g>
				<polygon fill="#EC297B" points="159.3,293.4 118.2,202.6 205.3,202.6 255.1,219.5 168.8,296.9 				"/>
			</g>
			<g>
				<polygon fill="#891459" points="54.5,202.6 112.8,202.6 150.6,286.2 				"/>
			</g>
			<g>
				<path fill="#BE2459" d="M56.5,338c-10.7-26-16.1-53.6-16.1-82c0-10.1,0.7-20.3,2.2-30.4c0.6-4-0.6-5.2-42.6-23h47l106,92.1
					L56.5,338z"/>
			</g>
			<g>
				<path fill="#EC297B" d="M88.6,392c-12.3-15.1-22.4-31.8-30.2-49.5l92.1-41.3L88.6,392z"/>
			</g>
			<g>
				<path fill="#BE1E2D" d="M182.4,458.9c-20.2-7.4-39.2-17.7-56.3-30.7l95.8-66h30l-17.4,84.6L182.4,458.9z"/>
			</g>
			<g>
				<path fill="#F9A11B" d="M229.3,470.3c-12.9-1.6-25.7-4.4-38.1-8.3l42.1-9.7L229.3,470.3z"/>
			</g>
			<g>
				<path fill="#F05A22" d="M256.4,471.9c-7.3,0-14.8-0.4-22.2-1.1l4.2-18.9l62.8,15.4C286.5,470.4,271.4,471.9,256.4,471.9z"/>
			</g>
			<g>
				<path fill="#82B341" d="M371.7,73.4c25.8,16.3,48.2,38.3,65,63.8l-69.8,12.4L371.7,73.4z"/>
			</g>
		</g>
		<g>
			<polygon fill="#00BFF2" points="260.4,149.8 222.9,78.7 354,149.8 			"/>
		</g>
		<g>
			<path fill="#006A2F" d="M364.2,195.5V155l75.4-13.3c3.8,6.1,7.3,12.3,10.4,18.7l-96.8,45.2L364.2,195.5z"/>
		</g>
	</g>
	<g>
		<polygon fill="#EC297B" points="148.8,312.5 158.4,298.4 164.7,300.6 150.4,313.4 		"/>
	</g>
	<g>
		<path fill="#891459" d="M122,425c-10.9-8.7-21-18.5-30.1-29.1l54.2-79.4l2.2,1.3v44.4h64.9L122,425z"/>
	</g>
</g>
</svg>
